<svg width="50" height="50" viewBox="0 0 50 50" fill="none" xmlns="http://www.w3.org/2000/svg">
<path d="M39.5833 14.5835H33.3333V12.5002C33.4247 11.3826 33.2719 10.2586 32.8854 9.20612C32.4989 8.1536 31.8881 7.19777 31.0952 6.40493C30.3024 5.6121 29.3466 5.00126 28.294 4.61478C27.2415 4.2283 26.1175 4.07545 25 4.16682C23.8825 4.07545 22.7585 4.2283 21.706 4.61478C20.6535 5.00126 19.6976 5.6121 18.9048 6.40493C18.112 7.19777 17.5011 8.1536 17.1146 9.20612C16.7282 10.2586 16.5753 11.3826 16.6667 12.5002V13.5418C16.6667 13.8181 16.7764 14.083 16.9718 14.2784C17.1671 14.4737 17.4321 14.5835 17.7083 14.5835C17.9846 14.5835 18.2496 14.4737 18.4449 14.2784C18.6403 14.083 18.75 13.8181 18.75 13.5418V12.5002C18.6536 11.656 18.749 10.801 19.029 9.99886C19.309 9.19671 19.7664 8.46809 20.3672 7.86732C20.9679 7.26655 21.6966 6.80911 22.4987 6.52911C23.3009 6.2491 24.1559 6.15375 25 6.25016C25.8441 6.15375 26.6992 6.2491 27.5013 6.52911C28.3035 6.80911 29.0321 7.26655 29.6328 7.86732C30.2336 8.46809 30.6911 9.19671 30.9711 9.99886C31.2511 10.801 31.3464 11.656 31.25 12.5002V14.5835H23.9583C23.6821 14.5835 23.4171 14.6932 23.2218 14.8886C23.0264 15.0839 22.9167 15.3489 22.9167 15.6252C22.9167 15.9014 23.0264 16.1664 23.2218 16.3617C23.4171 16.5571 23.6821 16.6668 23.9583 16.6668H31.25V19.7918C31.25 20.0681 31.3598 20.333 31.5551 20.5284C31.7505 20.7237 32.0154 20.8335 32.2917 20.8335C32.5679 20.8335 32.8329 20.7237 33.0282 20.5284C33.2236 20.333 33.3333 20.0681 33.3333 19.7918V16.6668H39.5833V41.6668C39.5833 42.2194 39.3639 42.7493 38.9732 43.14C38.5825 43.5307 38.0525 43.7502 37.5 43.7502H12.5C11.9475 43.7502 11.4176 43.5307 11.0269 43.14C10.6362 42.7493 10.4167 42.2194 10.4167 41.6668V38.5418C10.4167 38.2656 10.3069 38.0006 10.1116 37.8053C9.91623 37.6099 9.65128 37.5002 9.37501 37.5002C9.09874 37.5002 8.83379 37.6099 8.63844 37.8053C8.44309 38.0006 8.33334 38.2656 8.33334 38.5418V41.6668C8.33334 42.7719 8.77233 43.8317 9.55373 44.6131C10.3351 45.3945 11.3949 45.8335 12.5 45.8335H37.5C38.6051 45.8335 39.6649 45.3945 40.4463 44.6131C41.2277 43.8317 41.6667 42.7719 41.6667 41.6668V16.6668C41.6667 16.1143 41.4472 15.5844 41.0565 15.1937C40.6658 14.803 40.1359 14.5835 39.5833 14.5835Z" fill="#333333"/>
<path d="M15.625 20.8333C15.9013 20.8333 16.1662 20.7236 16.3616 20.5282C16.5569 20.3329 16.6667 20.0679 16.6667 19.7917C16.6667 19.5154 16.5569 19.2504 16.3616 19.0551C16.1662 18.8597 15.9013 18.75 15.625 18.75H3.12501C2.84874 18.75 2.58379 18.8597 2.38844 19.0551C2.19309 19.2504 2.08334 19.5154 2.08334 19.7917C2.08334 20.0679 2.19309 20.3329 2.38844 20.5282C2.58379 20.7236 2.84874 20.8333 3.12501 20.8333H15.625Z" fill="#333333"/>
<path d="M15.625 27.0833C15.9013 27.0833 16.1662 26.9736 16.3616 26.7782C16.5569 26.5829 16.6667 26.3179 16.6667 26.0417C16.6667 25.7654 16.5569 25.5004 16.3616 25.3051C16.1662 25.1097 15.9013 25 15.625 25H7.29167C7.0154 25 6.75045 25.1097 6.5551 25.3051C6.35975 25.5004 6.25 25.7654 6.25 26.0417C6.25 26.3179 6.35975 26.5829 6.5551 26.7782C6.75045 26.9736 7.0154 27.0833 7.29167 27.0833H15.625Z" fill="#333333"/>
<path d="M15.625 31.25H11.4584C11.1821 31.25 10.9171 31.3597 10.7218 31.5551C10.5264 31.7504 10.4167 32.0154 10.4167 32.2917C10.4167 32.5679 10.5264 32.8329 10.7218 33.0282C10.9171 33.2236 11.1821 33.3333 11.4584 33.3333H15.625C15.9013 33.3333 16.1662 33.2236 16.3616 33.0282C16.5569 32.8329 16.6667 32.5679 16.6667 32.2917C16.6667 32.0154 16.5569 31.7504 16.3616 31.5551C16.1662 31.3597 15.9013 31.25 15.625 31.25Z" fill="#333333"/>
</svg>
