<svg width="50" height="50" viewBox="0 0 50 50" fill="none" xmlns="http://www.w3.org/2000/svg">
<path d="M45.4791 22.0623L35.6666 12.2498C34.4957 11.0774 32.907 10.418 31.25 10.4165H6.24998C5.14491 10.4165 4.0851 10.8555 3.3037 11.6369C2.5223 12.4183 2.08331 13.4781 2.08331 14.5832V35.4165C2.08331 36.5216 2.5223 37.5814 3.3037 38.3628C4.0851 39.1442 5.14491 39.5832 6.24998 39.5832H31.25C32.907 39.5817 34.4957 38.9223 35.6666 37.7498L45.4791 27.9373C46.2552 27.1567 46.6908 26.1006 46.6908 24.9998C46.6908 23.8991 46.2552 22.843 45.4791 22.0623ZM44 26.479L34.1875 36.2707C33.4097 37.0531 32.3533 37.4952 31.25 37.4998H6.24998C5.69745 37.4998 5.16754 37.2803 4.77684 36.8896C4.38614 36.4989 4.16665 35.969 4.16665 35.4165V14.5832C4.16665 14.0306 4.38614 13.5007 4.77684 13.11C5.16754 12.7193 5.69745 12.4998 6.24998 12.4998H31.25C32.3533 12.5045 33.4097 12.9465 34.1875 13.729L44 23.5207C44.1953 23.7143 44.3502 23.9448 44.456 24.1986C44.5618 24.4525 44.6162 24.7248 44.6162 24.9998C44.6162 25.2749 44.5618 25.5472 44.456 25.801C44.3502 26.0549 44.1953 26.2853 44 26.479Z" fill="#333333"/>
<path d="M35.4166 27.0832C36.5672 27.0832 37.5 26.1504 37.5 24.9998C37.5 23.8492 36.5672 22.9165 35.4166 22.9165C34.2661 22.9165 33.3333 23.8492 33.3333 24.9998C33.3333 26.1504 34.2661 27.0832 35.4166 27.0832Z" fill="#333333"/>
<path d="M23.5 17.8746C23.2671 17.7228 22.9839 17.6683 22.7113 17.7228C22.4386 17.7773 22.1982 17.9365 22.0417 18.1663L13.7083 30.6663C13.5565 30.8992 13.5019 31.1824 13.5565 31.455C13.611 31.7277 13.7702 31.9681 14 32.1246C14.1767 32.2298 14.3777 32.2872 14.5833 32.2913C14.7551 32.2897 14.924 32.2474 15.0761 32.1677C15.2282 32.088 15.3592 31.9733 15.4583 31.833L23.7917 19.333C23.9435 19.1001 23.998 18.8169 23.9435 18.5443C23.889 18.2716 23.7297 18.0312 23.5 17.8746Z" fill="#333333"/>
<path d="M22.9166 26.0415C22.2986 26.0415 21.6944 26.2248 21.1805 26.5682C20.6666 26.9115 20.266 27.3996 20.0295 27.9706C19.793 28.5416 19.7311 29.17 19.8517 29.7762C19.9723 30.3824 20.2699 30.9392 20.7069 31.3762C21.144 31.8133 21.7008 32.1109 22.307 32.2315C22.9132 32.352 23.5415 32.2902 24.1125 32.0536C24.6835 31.8171 25.1716 31.4166 25.515 30.9027C25.8584 30.3888 26.0416 29.7846 26.0416 29.1665C26.0416 28.3377 25.7124 27.5428 25.1263 26.9568C24.5403 26.3707 23.7454 26.0415 22.9166 26.0415ZM22.9166 30.2082C22.7106 30.2082 22.5092 30.1471 22.3379 30.0326C22.1666 29.9182 22.0331 29.7555 21.9543 29.5651C21.8754 29.3748 21.8548 29.1653 21.895 28.9633C21.9352 28.7612 22.0344 28.5756 22.1801 28.4299C22.3257 28.2843 22.5113 28.185 22.7134 28.1449C22.9155 28.1047 23.1249 28.1253 23.3153 28.2041C23.5056 28.283 23.6683 28.4165 23.7827 28.5878C23.8972 28.7591 23.9583 28.9605 23.9583 29.1665C23.9583 29.4428 23.8485 29.7077 23.6532 29.9031C23.4578 30.0984 23.1929 30.2082 22.9166 30.2082Z" fill="#333333"/>
<path d="M17.7083 20.833C17.7083 20.2149 17.525 19.6108 17.1817 19.0969C16.8383 18.5829 16.3502 18.1824 15.7792 17.9459C15.2082 17.7094 14.5798 17.6475 13.9737 17.7681C13.3675 17.8886 12.8106 18.1863 12.3736 18.6233C11.9366 19.0603 11.6389 19.6172 11.5184 20.2234C11.3978 20.8295 11.4597 21.4579 11.6962 22.0289C11.9327 22.5999 12.3333 23.088 12.8472 23.4314C13.3611 23.7747 13.9652 23.958 14.5833 23.958C15.4121 23.958 16.207 23.6288 16.793 23.0427C17.3791 22.4567 17.7083 21.6618 17.7083 20.833ZM13.5416 20.833C13.5416 20.627 13.6027 20.4256 13.7172 20.2543C13.8317 20.083 13.9943 19.9495 14.1847 19.8706C14.375 19.7918 14.5845 19.7712 14.7865 19.8114C14.9886 19.8516 15.1742 19.9508 15.3199 20.0964C15.4656 20.2421 15.5648 20.4277 15.605 20.6298C15.6452 20.8319 15.6245 21.0413 15.5457 21.2316C15.4668 21.422 15.3333 21.5847 15.162 21.6991C14.9907 21.8136 14.7893 21.8747 14.5833 21.8747C14.307 21.8747 14.0421 21.7649 13.8467 21.5696C13.6514 21.3742 13.5416 21.1093 13.5416 20.833Z" fill="#333333"/>
</svg>
