<svg width="50" height="50" viewBox="0 0 50 50" fill="none" xmlns="http://www.w3.org/2000/svg">
<path d="M41.6667 10.4165H21.875C21.5987 10.4165 21.3338 10.5263 21.1384 10.7216C20.9431 10.917 20.8333 11.1819 20.8333 11.4582C20.8333 11.7344 20.9431 11.9994 21.1384 12.1947C21.3338 12.3901 21.5987 12.4998 21.875 12.4998H41.6667C42.2192 12.4998 42.7491 12.7193 43.1398 13.11C43.5305 13.5007 43.75 14.0306 43.75 14.5832V29.1665H10.4167V35.4165C10.4167 36.5216 10.8556 37.5814 11.637 38.3628C12.4184 39.1442 13.4783 39.5832 14.5833 39.5832H41.6667C42.7717 39.5832 43.8315 39.1442 44.6129 38.3628C45.3943 37.5814 45.8333 36.5216 45.8333 35.4165V14.5832C45.8333 13.4781 45.3943 12.4183 44.6129 11.6369C43.8315 10.8555 42.7717 10.4165 41.6667 10.4165ZM43.75 35.4165C43.75 35.969 43.5305 36.4989 43.1398 36.8896C42.7491 37.2803 42.2192 37.4998 41.6667 37.4998H14.5833C14.0308 37.4998 13.5009 37.2803 13.1102 36.8896C12.7195 36.4989 12.5 35.969 12.5 35.4165V31.2498H43.75V35.4165Z" fill="#333333"/>
<path d="M15.625 18.7498C15.9013 18.7498 16.1662 18.6401 16.3616 18.4447C16.5569 18.2494 16.6667 17.9844 16.6667 17.7082C16.6667 17.4319 16.5569 17.167 16.3616 16.9716C16.1662 16.7762 15.9013 16.6665 15.625 16.6665H7.29167C7.0154 16.6665 6.75045 16.7762 6.5551 16.9716C6.35975 17.167 6.25 17.4319 6.25 17.7082C6.25 17.9844 6.35975 18.2494 6.5551 18.4447C6.75045 18.6401 7.0154 18.7498 7.29167 18.7498H15.625Z" fill="#333333"/>
<path d="M15.625 22.9165H11.4583C11.1821 22.9165 10.9171 23.0262 10.7218 23.2216C10.5264 23.417 10.4167 23.6819 10.4167 23.9582C10.4167 24.2344 10.5264 24.4994 10.7218 24.6947C10.9171 24.8901 11.1821 24.9998 11.4583 24.9998H15.625C15.9013 24.9998 16.1662 24.8901 16.3616 24.6947C16.5569 24.4994 16.6667 24.2344 16.6667 23.9582C16.6667 23.6819 16.5569 23.417 16.3616 23.2216C16.1662 23.0262 15.9013 22.9165 15.625 22.9165Z" fill="#333333"/>
<path d="M15.625 12.4998C15.9013 12.4998 16.1662 12.3901 16.3616 12.1947C16.5569 11.9994 16.6667 11.7344 16.6667 11.4582C16.6667 11.1819 16.5569 10.917 16.3616 10.7216C16.1662 10.5263 15.9013 10.4165 15.625 10.4165H3.12499C2.84873 10.4165 2.58378 10.5263 2.38843 10.7216C2.19307 10.917 2.08333 11.1819 2.08333 11.4582C2.08333 11.7344 2.19307 11.9994 2.38843 12.1947C2.58378 12.3901 2.84873 12.4998 3.12499 12.4998H15.625Z" fill="#333333"/>
</svg>
