<svg width="50" height="50" viewBox="0 0 50 50" fill="none" xmlns="http://www.w3.org/2000/svg">
<path d="M42.7083 24.9998H42L43.5417 8.52067C43.5678 8.23174 43.5333 7.94054 43.4403 7.66572C43.3474 7.39091 43.1981 7.13853 43.0019 6.92476C42.8058 6.71098 42.5672 6.54053 42.3014 6.42431C42.0356 6.30808 41.7484 6.24866 41.4583 6.24984H27.2917C27.0016 6.24866 26.7144 6.30808 26.4486 6.42431C26.1828 6.54053 25.9442 6.71098 25.7481 6.92476C25.5519 7.13853 25.4026 7.39091 25.3097 7.66572C25.2167 7.94054 25.1822 8.23174 25.2083 8.52067L25.7292 14.104L26.0417 14.3332C26.562 13.9112 27.1366 13.5609 27.75 13.2915L27.2917 8.33317H41.4583L39.8958 24.9998H35.8958C36.9253 23.8558 37.4965 22.3722 37.5 20.8332C37.4963 19.492 37.0613 18.1876 36.2592 17.1127C35.4571 16.0378 34.3306 15.2494 33.0459 14.864C31.7613 14.4787 30.3868 14.5167 29.1255 14.9726C27.8642 15.4285 26.783 16.278 26.0417 17.3957C25.5762 16.6616 24.9627 16.0327 24.2404 15.5491C23.5181 15.0655 22.7029 14.7379 21.8468 14.5872C20.9907 14.4366 20.1126 14.4661 19.2686 14.674C18.4246 14.8819 17.6333 15.2635 16.9451 15.7945C16.2569 16.3256 15.6871 16.9943 15.272 17.758C14.8569 18.5218 14.6057 19.3637 14.5344 20.23C14.4631 21.0963 14.5733 21.9679 14.858 22.7892C15.1426 23.6105 15.5954 24.3634 16.1875 24.9998H10.4167V16.6665H13.625C14.0705 15.8791 14.6484 15.1743 15.3333 14.5832H12.5V6.24984H20.8333V12.4998C21.5369 12.4949 22.2378 12.586 22.9167 12.7707V6.24984C22.9167 5.6973 22.6972 5.1674 22.3065 4.7767C21.9158 4.386 21.3859 4.1665 20.8333 4.1665H12.5C11.9475 4.1665 11.4176 4.386 11.0269 4.7767C10.6362 5.1674 10.4167 5.6973 10.4167 6.24984V14.5832C9.86413 14.5832 9.33423 14.8027 8.94353 15.1934C8.55283 15.5841 8.33333 16.114 8.33333 16.6665V24.9998H7.29167C7.0154 24.9998 6.75045 25.1096 6.5551 25.3049C6.35975 25.5003 6.25 25.7652 6.25 26.0415C6.25 26.3178 6.35975 26.5827 6.5551 26.7781C6.75045 26.9734 7.0154 27.0832 7.29167 27.0832H8.33333V43.7498C8.33333 44.3024 8.55283 44.8323 8.94353 45.223C9.33423 45.6137 9.86413 45.8332 10.4167 45.8332H22.9167C23.4692 45.8332 23.9991 45.6137 24.3898 45.223C24.7805 44.8323 25 44.3024 25 43.7498V31.4998L22.9167 33.5832V43.7498H10.4167V27.0832H23.5208L16.9792 33.6457C16.8795 33.7392 16.8001 33.8521 16.7458 33.9776C16.6915 34.103 16.6635 34.2382 16.6635 34.3748C16.6635 34.5115 16.6915 34.6467 16.7458 34.7721C16.8001 34.8975 16.8795 35.0105 16.9792 35.104C17.0727 35.2037 17.1856 35.2831 17.3111 35.3374C17.4365 35.3917 17.5717 35.4197 17.7083 35.4197C17.845 35.4197 17.9802 35.3917 18.1056 35.3374C18.231 35.2831 18.344 35.2037 18.4375 35.104L26.0417 27.5207L33.6458 35.104C33.7394 35.2037 33.8523 35.2831 33.9777 35.3374C34.1031 35.3917 34.2383 35.4197 34.375 35.4197C34.5117 35.4197 34.6469 35.3917 34.7723 35.3374C34.8977 35.2831 35.0106 35.2037 35.1042 35.104C35.2038 35.0105 35.2832 34.8975 35.3375 34.7721C35.3918 34.6467 35.4198 34.5115 35.4198 34.3748C35.4198 34.2382 35.3918 34.103 35.3375 33.9776C35.2832 33.8521 35.2038 33.7392 35.1042 33.6457L28.5625 27.0832H39.7083L38.7292 37.4998H30.0208L29.7083 34.1248L27.3958 31.8123L28.0417 38.6457C28.0681 38.9185 28.201 39.17 28.4116 39.3455C28.6222 39.521 28.8935 39.6064 29.1667 39.5832V39.5832V43.7498C29.1667 44.3024 29.3862 44.8323 29.7769 45.223C30.1676 45.6137 30.6975 45.8332 31.25 45.8332H37.5C38.0525 45.8332 38.5824 45.6137 38.9731 45.223C39.3638 44.8323 39.5833 44.3024 39.5833 43.7498V39.5832C39.8425 39.5845 40.0928 39.4891 40.2854 39.3158C40.478 39.1424 40.5991 38.9035 40.625 38.6457L41.7917 27.0832H42.7083C42.9846 27.0832 43.2496 26.9734 43.4449 26.7781C43.6403 26.5827 43.75 26.3178 43.75 26.0415C43.75 25.7652 43.6403 25.5003 43.4449 25.3049C43.2496 25.1096 42.9846 24.9998 42.7083 24.9998ZM25 24.9998H20.8333C20.5563 25.0285 20.277 25.0285 20 24.9998C19.2785 24.8306 18.6153 24.4721 18.0785 23.9611C17.5418 23.4502 17.1511 22.8053 16.9466 22.0931C16.7421 21.3808 16.7312 20.6269 16.9152 19.909C17.0991 19.1912 17.4712 18.5354 17.993 18.0092C18.5148 17.4831 19.1675 17.1056 19.8838 16.9157C20.6001 16.7258 21.3541 16.7304 22.068 16.929C22.7819 17.1275 23.43 17.5129 23.9454 18.0454C24.4607 18.5779 24.8248 19.2381 25 19.9582C25.027 20.2492 25.027 20.5421 25 20.8332V24.9998ZM32.125 24.9998C31.834 25.0269 31.541 25.0269 31.25 24.9998H27.0833V20.8332C27.0546 20.5561 27.0546 20.2769 27.0833 19.9998C27.2525 19.2784 27.6111 18.6151 28.1221 18.0784C28.633 17.5417 29.2778 17.1509 29.9901 16.9464C30.7024 16.7419 31.4563 16.7311 32.1741 16.915C32.892 17.099 33.5478 17.471 34.0739 17.9928C34.6001 18.5146 34.9776 19.1673 35.1675 19.8836C35.3574 20.5999 35.3528 21.3539 35.1542 22.0678C34.9556 22.7818 34.5702 23.4298 34.0378 23.9452C33.5053 24.4606 32.845 24.8246 32.125 24.9998V24.9998ZM37.5 43.7498H31.25V39.5832H37.5V43.7498Z" fill="#333333"/>
</svg>
