<svg width="50" height="50" viewBox="0 0 50 50" fill="none" xmlns="http://www.w3.org/2000/svg">
<path d="M45.8333 33.521V30.2085C45.8333 29.3797 45.5041 28.5848 44.918 27.9988C44.332 27.4127 43.5371 27.0835 42.7083 27.0835H34.375C33.5462 27.0835 32.7513 27.4127 32.1653 27.9988C31.5792 28.5848 31.25 29.3797 31.25 30.2085V33.521C30.6421 33.7359 30.1156 34.1336 29.7426 34.6595C29.3697 35.1854 29.1685 35.8138 29.1667 36.4585V42.7085C29.1667 43.5373 29.4959 44.3321 30.082 44.9182C30.668 45.5043 31.4629 45.8335 32.2917 45.8335H44.7917C45.6205 45.8335 46.4153 45.5043 47.0014 44.9182C47.5874 44.3321 47.9167 43.5373 47.9167 42.7085V36.4585C47.9149 35.8138 47.7137 35.1854 47.3407 34.6595C46.9677 34.1336 46.4412 33.7359 45.8333 33.521ZM34.375 29.1668H42.7083C42.9846 29.1668 43.2496 29.2766 43.4449 29.4719C43.6403 29.6673 43.75 29.9322 43.75 30.2085V33.3335H33.3333V30.2085C33.3333 29.9322 33.4431 29.6673 33.6384 29.4719C33.8338 29.2766 34.0987 29.1668 34.375 29.1668ZM45.8333 42.7085C45.8333 42.9848 45.7236 43.2497 45.5282 43.4451C45.3329 43.6404 45.0679 43.7502 44.7917 43.7502H32.2917C32.0154 43.7502 31.7504 43.6404 31.5551 43.4451C31.3597 43.2497 31.25 42.9848 31.25 42.7085V36.4585C31.25 36.1822 31.3597 35.9173 31.5551 35.7219C31.7504 35.5266 32.0154 35.4168 32.2917 35.4168H44.7917C45.0679 35.4168 45.3329 35.5266 45.5282 35.7219C45.7236 35.9173 45.8333 36.1822 45.8333 36.4585V42.7085Z" fill="#333333"/>
<path d="M18.2708 18.979C18.3032 18.6868 18.2733 18.3911 18.1832 18.1113C18.0931 17.8314 17.9448 17.5738 17.748 17.3554C17.5512 17.137 17.3104 16.9627 17.0415 16.8439C16.7725 16.7252 16.4815 16.6648 16.1875 16.6665H6.25C5.95601 16.6648 5.66498 16.7252 5.39603 16.8439C5.12707 16.9627 4.88629 17.137 4.68952 17.3554C4.49274 17.5738 4.34442 17.8314 4.2543 18.1113C4.16419 18.3911 4.13432 18.6868 4.16667 18.979L6.54167 40.6249H7.0625V44.6457C7.0453 44.9408 7.14494 45.2308 7.33986 45.453C7.53479 45.6752 7.80935 45.8118 8.10417 45.8332H14.3542C14.647 45.8067 14.9184 45.6687 15.1123 45.4476C15.3062 45.2266 15.4077 44.9395 15.3958 44.6457V40.6249H15.9167L18.2708 18.979ZM6.25 18.7499H16.1875L14.1042 38.5415H8.33333L6.25 18.7499ZM13.3125 43.7499H9.14583V40.6249H13.3125V43.7499Z" fill="#333333"/>
<path d="M35.4167 12.4998V6.24984C35.4167 5.6973 35.1972 5.1674 34.8065 4.7767C34.4158 4.386 33.8859 4.1665 33.3333 4.1665H25C24.4475 4.1665 23.9176 4.386 23.5269 4.7767C23.1362 5.1674 22.9167 5.6973 22.9167 6.24984V12.4998C22.3641 12.4998 21.8342 12.7193 21.4435 13.11C21.0528 13.5007 20.8333 14.0306 20.8333 14.5832V43.7498C20.8333 44.3024 21.0528 44.8323 21.4435 45.223C21.8342 45.6137 22.3641 45.8332 22.9167 45.8332H26.0417C26.3179 45.8332 26.5829 45.7234 26.7782 45.5281C26.9736 45.3327 27.0833 45.0678 27.0833 44.7915C27.0833 44.5152 26.9736 44.2503 26.7782 44.0549C26.5829 43.8596 26.3179 43.7498 26.0417 43.7498H22.9167V14.5832H35.4167V23.9582C35.4167 24.2344 35.5264 24.4994 35.7218 24.6947C35.9171 24.8901 36.1821 24.9998 36.4583 24.9998C36.7346 24.9998 36.9996 24.8901 37.1949 24.6947C37.3903 24.4994 37.5 24.2344 37.5 23.9582V14.5832C37.5 14.0306 37.2805 13.5007 36.8898 13.11C36.4991 12.7193 35.9692 12.4998 35.4167 12.4998ZM25 6.24984H33.3333V12.4998H25V6.24984Z" fill="#333333"/>
</svg>
